<?xml version="1.0" encoding="UTF-8"?>
<svg width="59px" height="28px" viewBox="0 0 59 28" version="1.1" xmlns="http://www.w3.org/2000/svg" xmlns:xlink="http://www.w3.org/1999/xlink">
    <title>Group 4</title>
    <g id="Page-1" stroke="none" stroke-width="1" fill="none" fill-rule="evenodd">
        <g id="Login" transform="translate(-221.000000, -85.000000)" fill="#FBA700" fill-rule="nonzero">
            <g id="Group" transform="translate(69.000000, 85.261719)">
                <g id="Group-4" transform="translate(152.000000, 0.000000)">
                    <path d="M6.09766203,27.7382812 L7.75791654,23.6582813 L16.6931045,23.6582813 L18.353359,27.7382812 L24.5717668,27.7382812 L15.2139686,6.73828125 L9.32761172,6.73828125 L3.55271368e-15,27.7382812 L6.09766203,27.7382812 Z M14.9422906,19.2782813 L9.50873039,19.2782813 L12.2255105,12.5582812 L14.9422906,19.2782813 Z M34,27.7382812 L34,6.73828125 L28.0230838,6.73828125 L28.0230838,27.7382812 L34,27.7382812 Z" id="AI"></path>
                    <path d="M43.4244141,16.2363281 C44.4315755,16.2363281 45.3169922,15.8157552 46.0806641,14.9746094 C46.5897786,14.4101562 47.3921875,13.1871745 48.4878906,11.3056641 L48.4878906,11.3056641 L48.7203125,10.9072266 C48.7253433,10.923325 48.7309457,10.9418246 48.7371199,10.9627252 L48.7810248,11.1169413 C48.8487116,11.3609797 48.9529859,11.7586855 49.0938477,12.3100586 C49.2875326,13.0681966 49.4397135,13.5966797 49.5503906,13.8955078 C49.7606771,14.4710286 50.0041667,14.9248047 50.2808594,15.2568359 C50.7678385,15.8766276 51.3876302,16.1865234 52.1402344,16.1865234 C53.0367187,16.1865234 53.9525716,15.7438151 54.887793,14.8583984 C55.8230143,13.9729818 56.5839193,13.0377604 57.1705078,12.0527344 L57.1705078,12.0527344 L56.4732422,11.5712891 C55.9751953,12.2242839 55.6044271,12.672526 55.3609375,12.9160156 C54.9182292,13.3697917 54.5419271,13.5966797 54.2320312,13.5966797 C53.8889323,13.5966797 53.6288411,13.4527995 53.4517578,13.1650391 C53.2746745,12.8772786 53.0975911,12.4124349 52.9205078,11.7705078 C52.7876953,11.3056641 52.6659505,10.7993164 52.5552734,10.2514648 C52.4445964,9.70361328 52.30625,9.00358073 52.1402344,8.15136719 L52.1402344,8.15136719 L51.8248047,6.49121094 C52.7323568,5.12988281 53.3715169,4.23893229 53.7422852,3.81835938 C54.1130534,3.39778646 54.5031901,3.1875 54.9126953,3.1875 C55.1229818,3.1875 55.4301107,3.30924479 55.834082,3.55273438 C56.2380534,3.79622396 56.6005208,3.91796875 56.9214844,3.91796875 C57.4416667,3.91796875 57.884375,3.72981771 58.2496094,3.35351562 C58.6148437,2.97721354 58.7974609,2.56217448 58.7974609,2.10839844 C58.7974609,1.6656901 58.7089193,1.28938802 58.5318359,0.979492188 C58.1998047,0.381835938 57.5966146,0.0830078125 56.7222656,0.0830078125 C55.9917969,0.0830078125 55.2419596,0.428873698 54.4727539,1.12060547 C53.7035482,1.81233724 52.6880859,3.01595052 51.4263672,4.73144531 L51.4263672,4.73144531 L51.24375,3.61914062 C51.1330729,2.91080729 50.9698242,2.24121094 50.7540039,1.61035156 C50.5381836,0.979492188 50.2642578,0.442708333 49.9322266,0 C49.5337891,0.0774739583 48.739681,0.210286458 47.5499023,0.3984375 C46.3601237,0.586588542 45.2671875,0.741536458 44.2710937,0.86328125 L44.2710937,0.86328125 L44.2710937,1.77636719 C44.4813802,1.75423177 44.6916667,1.73486328 44.9019531,1.71826172 C45.1122396,1.70166016 45.2450521,1.69335938 45.3003906,1.69335938 C45.8316406,1.69335938 46.2134766,1.7874349 46.4458984,1.97558594 C46.8554036,2.29654948 47.1542318,2.96614583 47.3423828,3.984375 L47.3423828,3.984375 L47.6080078,5.39550781 C47.7408203,6.10384115 47.8708659,6.79557292 47.9981445,7.47070312 C48.1254232,8.14583333 48.244401,8.71582031 48.3550781,9.18066406 L48.3550781,9.18066406 L47.6910156,10.2763672 C46.9605469,11.4827474 46.4708008,12.2381185 46.2217773,12.5424805 C45.9727539,12.8468424 45.6766927,12.9990234 45.3335937,12.9990234 C45.1786458,12.9990234 44.8493815,12.8772786 44.3458008,12.6337891 C43.8422201,12.3902995 43.4188802,12.2685547 43.0757812,12.2685547 C42.5113281,12.2685547 42.0713867,12.4705404 41.755957,12.8745117 C41.4405273,13.2784831 41.2828125,13.7184245 41.2828125,14.1943359 C41.2828125,14.7698568 41.4958659,15.254069 41.9219727,15.6469727 C42.3480794,16.0398763 42.8488932,16.2363281 43.4244141,16.2363281 Z" id="x"></path>
                </g>
            </g>
        </g>
    </g>
</svg>