<?xml version="1.0" encoding="UTF-8"?>
<svg width="146px" height="26px" viewBox="0 0 146 26" version="1.1" xmlns="http://www.w3.org/2000/svg" xmlns:xlink="http://www.w3.org/1999/xlink">
    <title>Group 5</title>
    <g id="Page-1" stroke="none" stroke-width="1" fill="none" fill-rule="evenodd">
        <g id="Login" transform="translate(-69.000000, -92.000000)" fill="#F71F1C" fill-rule="nonzero">
            <g id="Group" transform="translate(69.000000, 85.261719)">
                <g id="Group-5" transform="translate(0.000000, 6.738281)">
                    <path d="M3.38342496,20.6289825 L3.38342496,8.39054471 L9.65913256,18.4912641 L11.2417023,18.4912641 L17.5174099,8.23021583 L17.5446956,20.6289825 L20.9008349,20.6289825 L20.8735492,1.92394656 L17.9539809,1.92394656 L10.5049888,14.3227133 L2.91956832,1.92394656 L0,1.92394656 L0,20.6289825 L3.38342496,20.6289825 Z M32.2789656,20.8160329 C36.8083893,20.8160329 40.0553859,17.7697842 40.0553859,13.4943474 C40.0553859,9.21891059 36.8083893,6.19938335 32.2789656,6.19938335 C27.8041132,6.19938335 24.529831,9.21891059 24.529831,13.4943474 C24.529831,17.7697842 27.8041132,20.8160329 32.2789656,20.8160329 Z M32.2789656,17.9568345 C29.8232539,17.9568345 27.9678273,16.2199383 27.9678273,13.4943474 C27.9678273,10.7687564 29.8232539,9.03186023 32.2789656,9.03186023 C34.7619629,9.03186023 36.6173895,10.7687564 36.6173895,13.4943474 C36.6173895,16.2199383 34.7619629,17.9568345 32.2789656,17.9568345 Z M51.4062309,20.8160329 C55.6627978,20.8160329 58.8006516,17.9301131 58.8006516,13.4943474 C58.8006516,9.05858171 55.6627978,6.19938335 51.4062309,6.19938335 C49.5508043,6.19938335 47.9136632,6.81397739 46.7403787,8.09660843 L46.7403787,0.801644399 L43.3296681,0.801644399 L43.3296681,20.6289825 L46.5766646,20.6289825 L46.5766646,18.7852004 C47.7226634,20.1479959 49.4143759,20.8160329 51.4062309,20.8160329 Z M51.0242313,17.9568345 C48.5685196,17.9568345 46.6858074,16.2199383 46.6858074,13.4943474 C46.6858074,10.7687564 48.5685196,9.03186023 51.0242313,9.03186023 C53.479943,9.03186023 55.3353696,10.7687564 55.3353696,13.4943474 C55.3353696,16.2199383 53.479943,17.9568345 51.0242313,17.9568345 Z M63.7666463,4.00822199 C65.0490735,4.00822199 65.9495011,3.09969168 65.9495011,1.92394656 C65.9495011,0.828365879 65.0217878,0 63.7666463,0 C62.5115048,0 61.5837915,0.881808839 61.5837915,2.004111 C61.5837915,3.12641316 62.5115048,4.00822199 63.7666463,4.00822199 Z M65.4583588,20.6289825 L65.4583588,6.35971223 L62.0476481,6.35971223 L62.0476481,20.6289825 L65.4583588,20.6289825 Z M83.7943392,20.6289825 L83.7943392,17.6896197 L73.8077785,17.6896197 L73.8077785,1.92394656 L70.2606394,1.92394656 L70.2606394,20.6289825 L83.7943392,20.6289825 Z M86.4410507,26 C88.8694767,26 90.7249033,25.0113052 92.0619019,21.7780062 L98.8833232,6.35971223 L95.6090409,6.35971223 L90.9977601,16.9146968 L86.413765,6.35971223 L82.8666259,6.35971223 L89.2241906,20.6824255 L88.9786194,21.2435766 C88.323763,22.659815 87.6143352,23.2209661 86.413765,23.2209661 C85.4860517,23.2209661 84.5583384,22.8468654 83.903482,22.2322713 L82.5391977,24.6906475 C83.466911,25.5190134 84.9949094,26 86.4410507,26 Z M106.905315,20.8160329 C108.13317,20.8160329 109.361026,20.4953751 110.179597,19.8540596 L109.224598,17.4758479 C108.70617,17.8766701 108.024028,18.0637205 107.3146,18.0637205 C106.004887,18.0637205 105.295459,17.315519 105.295459,15.9260021 L105.295459,9.13874615 L109.197312,9.13874615 L109.197312,6.46659815 L105.295459,6.46659815 L105.295459,3.2065776 L101.884749,3.2065776 L101.884749,6.46659815 L99.4836082,6.46659815 L99.4836082,9.13874615 L101.884749,9.13874615 L101.884749,16.0061665 C101.884749,19.1593011 103.712889,20.8160329 106.905315,20.8160329 Z M114.709021,4.00822199 C115.991448,4.00822199 116.891875,3.09969168 116.891875,1.92394656 C116.891875,0.828365879 115.964162,0 114.709021,0 C113.453879,0 112.526166,0.881808839 112.526166,2.004111 C112.526166,3.12641316 113.453879,4.00822199 114.709021,4.00822199 Z M116.400733,20.6289825 L116.400733,6.35971223 L112.990022,6.35971223 L112.990022,20.6289825 L116.400733,20.6289825 Z M122.649155,20.6289825 L126.41458,15.6855087 L130.152718,20.6289825 L134,20.6289825 L128.297292,13.3340185 L133.754429,6.35971223 L130.070861,6.35971223 L126.496437,11.0359712 L122.922012,6.35971223 L119.129302,6.35971223 L124.559153,13.3874615 L118.88373,20.6289825 L122.649155,20.6289825 Z" id="MobiLytix"></path>
                    <path d="M137.731139,6 L137.731139,1.78571429 L139.481481,1.78571429 L139.481481,1 L135,1 L135,1.78571429 L136.750343,1.78571429 L136.750343,6 L137.731139,6 Z M141.156379,6 L141.156379,2.72857143 L142.891632,5.42857143 L143.329218,5.42857143 L145.064472,2.68571429 L145.072016,6 L146,6 L145.992455,1 L145.185185,1 L143.125514,4.31428571 L141.028121,1 L140.22085,1 L140.22085,6 L141.156379,6 Z" id="TM"></path>
                </g>
            </g>
        </g>
    </g>
</svg>